<svg width="736" height="735" viewBox="0 0 736 735" fill="none" xmlns="http://www.w3.org/2000/svg">
<path d="M254.96 7.78003H247.88V37.05H254.96V7.78003Z" fill="#003033"/>
<path d="M258.19 56.5201H244.66V35.2701C244.66 33.7701 245.87 32.5601 247.37 32.5601H255.47C256.97 32.5601 258.18 33.7701 258.18 35.2701V56.5201H258.19Z" fill="#309191"/>
<path d="M662.86 371.19C658.56 371.19 655.08 367.71 655.08 363.41V39.72C655.08 26.4 644.24 15.56 630.92 15.56H237.58C233.28 15.56 229.8 12.08 229.8 7.78C229.8 3.48 233.28 0 237.58 0H630.92C652.82 0 670.64 17.82 670.64 39.72V363.4C670.64 367.7 667.16 371.18 662.86 371.18V371.19Z" fill="#DFE8E6"/>
<path d="M673.67 359.05H652.05V340.1C652.05 334.13 656.89 329.29 662.86 329.29C668.83 329.29 673.67 334.13 673.67 340.1V359.05Z" fill="#067070"/>
<path d="M630.84 496.46H437.46V532.6H630.84V496.46Z" fill="#DFE8E6"/>
<g style="mix-blend-mode:multiply" opacity="0.07">
<path d="M437.46 496.46V532.6H507.08C481.69 523.3 480.91 504.35 481.81 496.46H437.45H437.46Z" fill="#003033"/>
</g>
<path d="M353.84 442.82L311.47 377.37H258.31C254.96 377.37 252.25 374.66 252.25 371.31V355.81H323.2L371.94 431.1L353.84 442.82Z" fill="#003033"/>
<path d="M252.13 355.64H333.35C337.64 355.64 341.12 359.12 341.12 363.41C341.12 367.7 337.64 371.18 333.35 371.18H252.13C247.84 371.18 244.36 367.7 244.36 363.41C244.36 359.12 247.84 355.64 252.13 355.64Z" fill="#97F2E7"/>
<g style="mix-blend-mode:multiply" opacity="0.07">
<path d="M333.35 367.97H252.13C248.39 367.97 245.27 365.32 244.53 361.8C244.42 362.32 244.36 362.85 244.36 363.4C244.36 367.69 247.84 371.17 252.13 371.17H333.35C337.64 371.17 341.12 367.69 341.12 363.4C341.12 362.85 341.06 362.32 340.95 361.8C340.21 365.32 337.09 367.97 333.35 367.97Z" fill="#003033"/>
</g>
<path d="M262.81 627.89L304.17 511.69H395.38L361.86 633.82L262.81 627.89Z" fill="#C2FFF8"/>
<path d="M262.81 627.89L304.17 511.69H395.38L361.86 633.82L262.81 627.89Z" fill="#DFE8E6"/>
<path d="M349.09 619.43L385.59 511.69H450.6L417.08 633.82L349.09 619.43Z" fill="#C0CECC"/>
<path d="M395 469.51L310.51 468.8H191.04C191.04 468.8 200.6 526.48 287.28 558.87H450.77L395 469.51Z" fill="#003033"/>
<path d="M355.51 468.8C355.51 468.8 364.73 524.39 446.15 558.21C450.72 560.11 455.98 557.81 457.69 553.16L474.93 506.41L478.51 468.8H355.51Z" fill="#C0CECC"/>
<g style="mix-blend-mode:multiply" opacity="0.07">
<path d="M355.59 469.18L310.51 468.8H274.38C270.71 471.05 267.11 473.42 263.66 476.04L215.26 512.4C222.71 520.72 232.41 529.41 244.96 537.69L276.65 513.61C297.68 497.44 323.46 488.67 349.99 488.67H476.63L478.52 468.8H355.52C355.52 468.8 355.55 468.95 355.59 469.18Z" fill="#003033"/>
</g>
<path d="M175.48 574.16L271.95 500.85C292.98 484.68 318.76 475.91 345.29 475.91H477.66C484.87 475.91 490.72 470.06 490.72 462.85V443.72C490.72 436.51 484.87 430.66 477.66 430.66H211.24C181.96 430.66 153.49 440.26 130.18 457.98L8.35982 549.55C-7.70018 561.76 0.939817 587.39 21.1098 587.39H136.59C150.66 587.39 164.33 582.74 175.48 574.16Z" fill="#B6FFF8"/>
<path d="M258.96 463.28L142.29 550.93C138.9 553.51 136.65 556.71 135.41 560.14C130.09 574.86 145.76 588.59 160.31 582.79C165.71 580.64 170.82 577.75 175.48 574.16L271.95 500.85C292.98 484.68 318.76 475.91 345.29 475.91H477.66C484.87 475.91 490.72 470.06 490.72 462.85V443.72C490.72 443.72 490.72 443.67 490.72 443.65C490.7 439.89 487.39 436.97 483.63 436.97H337.06C308.85 436.97 281.42 446.21 258.97 463.29L258.96 463.28Z" fill="#97F2E7"/>
<path d="M477.92 187.45H462.24L459.48 208.49H475.16L477.92 187.45Z" fill="#003033"/>
<path d="M421.69 409.61H388.34L379.61 430.66H412.96L421.69 409.61Z" fill="#003033"/>
<g opacity="0.5">
<path d="M89.7798 559.52H10.0298C9.60977 559.52 9.25977 559.87 9.25977 560.29C9.25977 560.71 9.60977 561.06 10.0298 561.06H89.7798C90.1998 561.06 90.5498 560.71 90.5498 560.29C90.5498 559.87 90.1998 559.52 89.7798 559.52Z" fill="white"/>
<path d="M117.66 559.52H97.9097C97.4897 559.52 97.1396 559.87 97.1396 560.29C97.1396 560.71 97.4897 561.06 97.9097 561.06H117.66C118.08 561.06 118.43 560.71 118.43 560.29C118.43 559.87 118.08 559.52 117.66 559.52Z" fill="white"/>
</g>
<path d="M359.6 411.72H482.18C499.28 411.72 514.25 400.24 518.69 383.73L542.85 248.15C548.85 225.85 532.05 203.94 508.96 203.94H427.63C412.36 203.94 398.27 212.16 390.75 225.46L335.09 365.96C327.24 383.02 327.69 411.73 359.61 411.73L359.6 411.72Z" fill="#B6FFF8"/>
<path d="M422.42 247.31C420.79 246.74 419.02 247.61 418.46 249.23L385.32 344.62C384.75 346.24 385.61 348.02 387.24 348.58C387.58 348.7 387.92 348.75 388.26 348.75C389.55 348.75 390.75 347.94 391.2 346.66L424.34 251.27C424.91 249.65 424.05 247.87 422.42 247.31Z" fill="#97F2E7"/>
<path d="M459.71 247.19C458.01 246.87 456.39 247.98 456.07 249.67L437.86 345.06C437.54 346.75 438.64 348.38 440.34 348.7C440.54 348.74 440.73 348.75 440.93 348.75C442.4 348.75 443.7 347.71 443.99 346.22L462.2 250.83C462.52 249.14 461.42 247.51 459.72 247.19H459.71Z" fill="#97F2E7"/>
<g opacity="0.5">
<path d="M365.72 305.11C364.95 304.81 364.06 305.19 363.75 305.96L352.98 333.15C352.67 333.93 353.05 334.81 353.83 335.12C354.01 335.19 354.2 335.23 354.39 335.23C354.99 335.23 355.56 334.87 355.8 334.27L366.57 307.08C366.88 306.3 366.5 305.42 365.72 305.11Z" fill="white"/>
<path d="M443.94 208.49H427.63C414.19 208.49 401.66 215.71 394.83 227.54L370.11 289.92C369.8 290.7 370.18 291.58 370.96 291.89C371.14 291.96 371.33 292 371.52 292C372.12 292 372.69 291.64 372.93 291.04L397.55 228.86C403.75 218.17 415.27 211.53 427.63 211.53H443.94C444.78 211.53 445.46 210.85 445.46 210.01C445.46 209.17 444.78 208.49 443.94 208.49Z" fill="white"/>
</g>
<path d="M508.96 203.94H476.53C499.62 203.94 516.42 225.85 510.42 248.15L486.26 383.73C481.82 400.24 466.85 411.72 449.75 411.72H482.18C499.28 411.72 514.25 400.24 518.69 383.73L542.85 248.15C548.85 225.85 532.05 203.94 508.96 203.94Z" fill="#97F2E7"/>
<path d="M450.85 196.36H503.59C509.74 196.36 514.8 191.51 515.06 185.37L516.75 146.01C517.03 139.48 511.81 134.04 505.28 134.04H464.99C460.15 134.04 455.82 137.08 454.19 141.64L440.05 181C437.36 188.48 442.91 196.36 450.85 196.36Z" fill="#97F2E7"/>
<path d="M435.18 196.36H487.92C494.07 196.36 499.13 191.51 499.39 185.37L501.08 146.01C501.36 139.48 496.14 134.04 489.61 134.04H449.32C444.48 134.04 440.15 137.08 438.52 141.64L424.38 181C421.69 188.48 427.24 196.36 435.18 196.36Z" fill="#B6FFF8"/>
<g opacity="0.5">
<path d="M465.07 138.48H449.33C446.37 138.48 443.71 140.35 442.71 143.13L432.41 171.8C432.18 172.43 432.51 173.13 433.14 173.35C433.27 173.4 433.42 173.42 433.55 173.42C434.05 173.42 434.51 173.11 434.69 172.62L444.99 143.95C445.65 142.13 447.38 140.9 449.32 140.9H465.06C465.73 140.9 466.27 140.36 466.27 139.69C466.27 139.02 465.73 138.48 465.06 138.48H465.07Z" fill="white"/>
<path d="M489.609 138.48H473.21C472.54 138.48 472 139.02 472 139.69C472 140.36 472.54 140.9 473.21 140.9H489.609C490.279 140.9 490.82 140.36 490.82 139.69C490.82 139.02 490.279 138.48 489.609 138.48Z" fill="white"/>
</g>
<path d="M450.89 430.66L416.4 377.37H363.24C359.89 377.37 357.18 374.66 357.18 371.31V355.81H428.13L476.59 430.66H450.9H450.89Z" fill="#003033"/>
<path d="M357.05 355.64H438.27C442.56 355.64 446.04 359.12 446.04 363.41C446.04 367.7 442.56 371.18 438.27 371.18H357.05C352.76 371.18 349.28 367.7 349.28 363.41C349.28 359.12 352.76 355.64 357.05 355.64Z" fill="#97F2E7"/>
<g style="mix-blend-mode:multiply" opacity="0.07">
<path d="M438.28 367.97H357.06C353.32 367.97 350.2 365.32 349.46 361.8C349.35 362.32 349.29 362.85 349.29 363.4C349.29 367.69 352.77 371.17 357.06 371.17H438.28C442.57 371.17 446.05 367.69 446.05 363.4C446.05 362.85 445.99 362.32 445.88 361.8C445.14 365.32 442.02 367.97 438.28 367.97Z" fill="#003033"/>
</g>
<path d="M77.5 734.69L97.12 676.94C100.38 667.35 108.03 659.89 117.7 656.88L266.33 617.51H349.74L389.79 734.69H77.5Z" fill="#DFE8E6"/>
<path d="M183.49 734.69L203.11 676.94C206.37 667.35 214.02 659.89 223.69 656.88L375.69 609.47C388.51 605.47 402.46 609.99 410.51 620.74L495.78 734.69H183.49Z" fill="#C0CECC"/>
<path opacity="0.2" d="M238.88 659.75C238.39 659.75 237.93 659.43 237.78 658.94C237.59 658.33 237.93 657.69 238.54 657.49L265.33 649.13C265.93 648.96 266.58 649.28 266.78 649.89C266.97 650.5 266.63 651.14 266.02 651.34L239.23 659.7C239.12 659.73 239 659.75 238.89 659.75H238.88ZM421.94 647.44C421.59 647.44 421.24 647.28 421.02 646.98L404.67 625.12C400.09 619 392.79 615.34 385.14 615.34C382.68 615.34 380.24 615.71 377.88 616.45L279.48 647.14C278.88 647.32 278.23 646.99 278.03 646.38C277.84 645.77 278.18 645.13 278.79 644.93L377.19 614.24C379.77 613.44 382.44 613.03 385.13 613.03C393.5 613.03 401.49 617.03 406.51 623.73L422.86 645.59C423.25 646.1 423.14 646.82 422.63 647.21C422.42 647.37 422.18 647.44 421.94 647.44Z" fill="white"/>
<path d="M189.63 672.13H109.88C109.46 672.13 109.11 671.78 109.11 671.36C109.11 670.94 109.46 670.59 109.88 670.59H189.63C190.05 670.59 190.4 670.94 190.4 671.36C190.4 671.78 190.05 672.13 189.63 672.13Z" fill="#C0CECC"/>
<g style="mix-blend-mode:multiply" opacity="0.07">
<path d="M84.77 713.3L77.5 734.69H495.78L438.09 657.59C438.09 657.59 350.6 772.92 84.77 713.3Z" fill="#003033"/>
</g>
<path d="M651.92 479.84H599.16V532.6H651.92V479.84Z" fill="#003033"/>
<path d="M634.63 479.84H599.16V532.6H634.63V479.84Z" fill="#DFE8E6"/>
<path d="M646.79 350.65C614.02 350.65 585.97 355.42 570.12 358.82C562.11 360.54 556.96 366.43 557.89 372.7L572.23 468.37C573.21 474.9 580.51 479.84 589.2 479.84H704.38C713.07 479.84 720.37 474.9 721.35 468.37L735.69 372.7C736.63 366.44 731.48 360.54 723.46 358.82C707.62 355.42 679.56 350.65 646.79 350.65Z" fill="#003033"/>
<path d="M626.1 350.65C593.33 350.65 565.28 355.42 549.43 358.82C541.42 360.54 536.27 366.43 537.2 372.7L551.54 468.37C552.52 474.9 559.82 479.84 568.51 479.84H683.69C692.38 479.84 699.68 474.9 700.66 468.37L715 372.7C715.94 366.44 710.79 360.54 702.77 358.82C686.93 355.42 658.87 350.65 626.1 350.65Z" fill="#DFE8E6"/>
<g opacity="0.6">
<path d="M594.31 355.59C585.36 356.39 576.3 357.54 567.39 358.99C566.75 359.09 566.32 359.7 566.43 360.33C566.52 360.9 567.02 361.31 567.58 361.31C567.64 361.31 567.7 361.31 567.77 361.29C576.62 359.85 585.62 358.71 594.52 357.91C595.16 357.86 595.64 357.29 595.58 356.65C595.53 356.01 594.96 355.49 594.32 355.59H594.31Z" fill="white"/>
<path d="M687.33 359.41C666.85 355.92 646.25 354.15 626.1 354.15C620.02 354.15 613.81 354.31 607.65 354.64C607.01 354.67 606.51 355.22 606.55 355.87C606.58 356.51 607.14 357.1 607.78 356.97C613.9 356.65 620.07 356.48 626.11 356.48C646.13 356.48 666.6 358.24 686.94 361.71C687.01 361.71 687.07 361.73 687.14 361.73C687.7 361.73 688.2 361.33 688.29 360.76C688.4 360.12 687.97 359.52 687.34 359.41H687.33Z" fill="white"/>
</g>
<path d="M683.69 474.23H568.52C562.08 474.23 557.57 470.75 557.09 467.53L543.64 377.77C543.51 376.9 543.76 376.02 544.34 375.35C544.91 374.68 545.75 374.3 546.63 374.3H705.57C706.45 374.3 707.29 374.69 707.87 375.36C708.44 376.03 708.7 376.91 708.57 377.78L695.12 467.54C694.64 470.76 690.13 474.24 683.69 474.24V474.23ZM546.63 375.55C546.11 375.55 545.62 375.78 545.28 376.17C544.94 376.57 544.79 377.08 544.87 377.59L558.32 467.35C558.73 470.07 562.92 472.98 568.52 472.98H683.69C689.28 472.98 693.48 470.07 693.89 467.35L707.34 377.59C707.42 377.08 707.27 376.56 706.93 376.17C706.59 375.77 706.1 375.55 705.58 375.55H546.64H546.63Z" fill="#C0CECC"/>
<path d="M220.37 109.3L211.33 81.1299C209.24 74.6299 210.36 67.7299 214.39 62.2099C218.47 56.6199 224.79 53.4099 231.74 53.4099H275.49C284.94 53.4099 293.21 59.4099 296.07 68.3499L308.59 107.4L302.66 109.3L290.14 70.2499C288.11 63.8999 282.22 59.6399 275.49 59.6399H231.74C226.8 59.6399 222.31 61.9099 219.42 65.8799C216.57 69.7799 215.79 74.6499 217.26 79.2299L226.3 107.41L220.37 109.31V109.3Z" fill="#DFE8E6"/>
<path d="M317.45 116.46C312.62 98.0901 274.81 66.7501 245.94 74.3401C217.08 81.9301 208.09 125.56 212.92 143.94C217.75 162.31 245.06 171.06 273.93 163.47C302.79 155.88 322.28 134.84 317.45 116.46Z" fill="#C0CECC"/>
<path d="M273.934 163.445C302.799 155.856 322.282 134.809 317.451 116.435C312.621 98.0608 285.305 89.3174 256.441 96.906C227.576 104.495 208.093 125.542 212.923 143.916C217.754 162.29 245.07 171.034 273.934 163.445Z" fill="#DFE8E6"/>
<path d="M273.174 160.553C300.366 153.404 318.835 134.008 314.424 117.231C310.013 100.454 284.393 92.6487 257.201 99.7978C230.008 106.947 211.54 126.343 215.95 143.12C220.361 159.897 245.981 167.702 273.174 160.553Z" fill="#F9EDA5"/>
<g style="mix-blend-mode:multiply" opacity="0.07">
<path d="M258.14 103.4C284.83 96.3899 309.75 103.02 314.59 118.2C314.52 117.89 314.5 117.57 314.42 117.26C310.01 100.48 284.39 92.6699 257.2 99.8199C230.01 106.97 211.54 126.36 215.95 143.14C216.03 143.45 216.17 143.74 216.27 144.04C213.02 128.45 231.46 110.41 258.15 103.4H258.14Z" fill="#003033"/>
</g>
<path d="M254.17 158.42C252.2 158.42 250.33 158.07 248.74 157.4C246.26 156.35 244.72 154.62 244.4 152.53C243.77 148.38 248.23 144.37 254.56 143.4C257.48 142.95 260.35 143.25 262.64 144.22C265.12 145.27 266.66 147 266.98 149.09C267.61 153.24 263.15 157.25 256.82 158.22C255.93 158.36 255.04 158.42 254.17 158.42ZM257.22 145.53C256.47 145.53 255.69 145.59 254.92 145.71C250.05 146.45 246.29 149.41 246.72 152.18C246.91 153.44 247.95 154.53 249.66 155.25C251.55 156.05 253.97 156.29 256.47 155.91C261.33 155.17 265.09 152.21 264.67 149.44C264.48 148.18 263.44 147.09 261.73 146.37C260.43 145.82 258.88 145.53 257.23 145.53H257.22Z" fill="white"/>
<path d="M230.22 146.02C228.29 146.41 226.39 146.43 224.69 146.08C222.05 145.53 220.2 144.14 219.48 142.16C218.05 138.21 221.64 133.41 227.66 131.22C230.43 130.21 233.3 129.94 235.74 130.45C238.38 131 240.23 132.39 240.95 134.37C242.38 138.32 238.79 143.12 232.77 145.31C231.92 145.62 231.07 145.86 230.21 146.03L230.22 146.02ZM230.69 132.79C229.95 132.94 229.2 133.15 228.46 133.41C223.83 135.09 220.72 138.73 221.68 141.35C222.11 142.54 223.35 143.41 225.17 143.79C227.18 144.21 229.6 143.97 231.98 143.11C236.61 141.43 239.71 137.79 238.76 135.17C238.33 133.98 237.09 133.11 235.27 132.73C233.89 132.44 232.31 132.47 230.69 132.79Z" fill="white"/>
<path d="M294.63 124.74C292.67 124.51 290.86 123.95 289.35 123.1C287.01 121.77 285.68 119.87 285.6 117.77C285.45 113.57 290.34 110.1 296.74 109.87C299.69 109.76 302.51 110.38 304.67 111.61C307.01 112.94 308.34 114.84 308.42 116.94C308.57 121.14 303.68 124.61 297.28 124.84C296.38 124.87 295.49 124.84 294.63 124.74ZM299.14 112.29C298.39 112.2 297.62 112.17 296.83 112.2C291.91 112.38 287.83 114.89 287.94 117.68C287.98 118.95 288.9 120.15 290.51 121.07C292.3 122.09 294.67 122.6 297.2 122.51C302.12 122.33 306.19 119.82 306.09 117.03C306.05 115.76 305.13 114.56 303.52 113.64C302.29 112.94 300.78 112.48 299.14 112.29Z" fill="white"/>
<path d="M242.63 106.09C244.45 106.47 245.69 107.33 246.12 108.53C247.07 111.16 243.97 114.8 239.34 116.47C236.96 117.33 234.55 117.57 232.53 117.15C230.71 116.77 229.47 115.91 229.04 114.71C228.95 114.47 228.94 114.22 228.92 113.97C228.24 114.54 227.58 115.11 226.95 115.7C227.72 117.57 229.51 118.9 232.05 119.43C233.74 119.78 235.64 119.76 237.58 119.37C238.43 119.2 239.29 118.96 240.14 118.65C246.16 116.47 249.75 111.66 248.32 107.71C247.75 106.14 246.45 104.96 244.64 104.26C243.45 104.8 242.28 105.35 241.15 105.94C241.66 105.97 242.17 105.98 242.64 106.08L242.63 106.09Z" fill="white"/>
<path d="M279.12 97.28C280.77 98.14 281.72 99.31 281.81 100.57C282.01 103.36 278.04 106.02 273.13 106.37C270.6 106.55 268.22 106.13 266.39 105.18C264.74 104.32 263.79 103.15 263.7 101.89C263.59 100.45 264.62 99.05 266.29 97.98C264.98 98.17 263.66 98.37 262.34 98.63C261.66 99.69 261.28 100.84 261.37 102.06C261.52 104.16 262.93 106.01 265.31 107.25C266.84 108.05 268.68 108.54 270.64 108.7C271.51 108.77 272.4 108.77 273.3 108.7C279.68 108.23 284.45 104.59 284.14 100.4C284.06 99.33 283.66 98.34 282.97 97.45C281.66 97.34 280.33 97.27 278.98 97.23C279.02 97.25 279.08 97.26 279.12 97.28Z" fill="white"/>
<path d="M290.66 147.36C288.82 148.06 286.95 148.4 285.22 148.34C282.53 148.24 280.47 147.17 279.43 145.33C277.36 141.67 280.11 136.34 285.68 133.19C288.25 131.73 291.03 130.99 293.52 131.08C296.21 131.18 298.27 132.25 299.31 134.09C301.38 137.75 298.63 143.08 293.06 146.23C292.28 146.67 291.47 147.05 290.66 147.36ZM288.93 134.23C288.23 134.5 287.52 134.83 286.84 135.22C282.55 137.64 280.09 141.75 281.47 144.18C282.09 145.29 283.46 145.93 285.31 146C287.37 146.08 289.7 145.44 291.91 144.19C296.19 141.77 298.65 137.66 297.27 135.23C296.65 134.12 295.28 133.48 293.43 133.41C292.02 133.36 290.47 133.64 288.92 134.23H288.93Z" fill="white"/>
<path d="M230.22 247.91C229.82 247.91 229.48 247.61 229.44 247.2L227.73 228.6C227.69 228.17 228.01 227.79 228.43 227.75C228.83 227.72 229.24 228.02 229.28 228.45L231 247.05C231.04 247.48 230.72 247.86 230.3 247.9C230.28 247.9 230.25 247.9 230.23 247.9L230.22 247.91Z" fill="#F9EDA5"/>
<path d="M227.65 219.99C227.25 219.99 226.91 219.69 226.87 219.28L222.65 173.5C222.61 173.07 222.93 172.69 223.36 172.65C223.71 172.61 224.17 172.93 224.21 173.35L228.43 219.13C228.47 219.56 228.15 219.94 227.72 219.98C227.7 219.98 227.67 219.98 227.65 219.98V219.99Z" fill="#F9EDA5"/>
<path d="M363.98 209.27C363.73 209.27 363.49 209.15 363.34 208.93L332.13 163.48C331.89 163.13 331.98 162.64 332.33 162.4C332.69 162.16 333.17 162.25 333.41 162.6L364.62 208.05C364.86 208.4 364.77 208.89 364.42 209.13C364.29 209.22 364.13 209.27 363.98 209.27Z" fill="#F9EDA5"/>
<path d="M329.15 158.55C328.9 158.55 328.66 158.43 328.51 158.21L320.11 145.97C319.87 145.62 319.96 145.13 320.31 144.89C320.66 144.65 321.15 144.74 321.39 145.09L329.79 157.33C330.03 157.68 329.94 158.17 329.59 158.41C329.46 158.5 329.3 158.55 329.15 158.55Z" fill="#F9EDA5"/>
<path d="M268.46 212.06C268.08 212.06 267.75 211.78 267.69 211.4L263.93 186.84C263.87 186.41 264.16 186.02 264.58 185.95C264.99 185.87 265.4 186.17 265.47 186.6L269.23 211.16C269.29 211.59 269.01 211.98 268.58 212.05C268.54 212.05 268.5 212.05 268.46 212.05V212.06Z" fill="#F9EDA5"/>
<path d="M313.11 215.21C312.82 215.21 312.55 215.05 312.41 214.78L302.49 194.93C302.3 194.55 302.45 194.08 302.84 193.89C303.22 193.7 303.69 193.85 303.88 194.24L313.8 214.09C313.99 214.47 313.84 214.94 313.45 215.13C313.34 215.19 313.22 215.21 313.1 215.21H313.11Z" fill="#F9EDA5"/>
<path d="M297.86 185.76C297.57 185.76 297.3 185.6 297.16 185.33L290.13 171.27C289.94 170.89 290.09 170.42 290.48 170.23C290.85 170.04 291.33 170.19 291.52 170.58L298.55 184.64C298.74 185.02 298.59 185.49 298.2 185.68C298.09 185.74 297.97 185.76 297.85 185.76H297.86Z" fill="#F9EDA5"/>
<path d="M537.27 329.83L560.24 305.79C561.34 304.45 563 303.67 564.75 303.67H643.39C645.11 303.67 646.05 305.64 644.95 306.94L622.89 332.98C622.79 333.1 622.65 333.18 622.5 333.22L610.51 336.17C579.68 342.71 549.1 337.58 537.61 330.98C537.61 330.98 536.71 330.47 537.27 329.82V329.83Z" fill="#003033"/>
<path d="M537.25 329.66L556.75 305.59C557.73 304.38 559.21 303.67 560.77 303.67H630.84C632.37 303.67 633.21 305.46 632.23 306.64L612.57 330.23C612.48 330.34 612.36 330.41 612.22 330.45L601.54 333.12C580.41 338.4 558.22 337.56 537.55 330.7C537.11 330.55 536.95 330.01 537.24 329.65L537.25 329.66Z" fill="#DFE8E6"/>
<path d="M559.72 318.63L547.61 333.55C549.89 334.08 552.18 334.57 554.49 334.96L564.56 322.55C565.09 321.91 565.33 321.09 565.24 320.27C565.15 319.44 564.75 318.69 564.1 318.17C562.77 317.09 560.8 317.3 559.72 318.63Z" fill="#003033"/>
<path d="M596.86 319.72L583.61 335.42C583.44 335.62 583.35 335.87 583.23 336.1C586.19 335.85 589.14 335.51 592.08 335.03L601.61 323.74C602.15 323.1 602.4 322.3 602.33 321.47C602.26 320.64 601.87 319.89 601.23 319.35C599.92 318.26 597.95 318.42 596.85 319.73L596.86 319.72Z" fill="#003033"/>
<path d="M559.63 523.13C558.52 523.13 557.38 523.07 556.22 522.96C548.26 522.17 542.31 519.02 538.53 513.62C528.51 499.3 535.51 471.98 541.68 447.88L542.74 443.75C559.89 376.25 554.33 326.91 554.28 326.42L558.61 325.91C558.67 326.41 564.33 376.49 546.97 444.83L545.91 448.97C539.97 472.16 533.24 498.45 542.11 511.13C545.17 515.51 549.93 517.97 556.66 518.64C563.68 519.35 569.62 517.58 574.34 513.42C586.34 502.81 587.03 480.03 587.04 479.81L591.4 479.91C591.38 480.92 590.67 504.8 577.24 516.68C572.37 520.99 566.46 523.16 559.64 523.16L559.63 523.13Z" fill="#FFA9AF"/>
<path d="M569.66 523.14C568.77 523.14 567.85 523.08 566.92 522.95C562.84 522.41 559.87 520.69 558.09 517.87C552.6 509.13 559.97 491.69 568.5 471.51C573.25 460.27 578.16 448.64 580.64 438.63C596.08 376.22 589.52 326.93 589.45 326.44L594.11 325.88C594.18 326.38 600.85 376.39 585.22 439.6C582.67 449.93 577.69 461.71 572.87 473.1C565.47 490.63 557.81 508.75 562.15 515.68C563.18 517.32 564.96 518.29 567.59 518.64C571.4 519.14 574.62 518.3 577.47 516.05C588.81 507.08 589.42 480.09 589.43 479.81L594.13 479.88C594.11 481.07 593.48 509.11 580.53 519.36C577.35 521.87 573.7 523.14 569.67 523.14H569.66Z" fill="#FFA9AF"/>
<path d="M552.849 287.092L552.232 287.153L553.729 302.309L554.346 302.248L552.849 287.092Z" fill="#C2FFF8"/>
<path d="M554.976 297.952L552.299 298.217L552.711 302.386L555.388 302.121L554.976 297.952Z" fill="#32F9EA"/>
<path d="M553.27 286.73C553.23 286.32 552.87 286.03 552.46 286.07C552.05 286.11 551.76 286.47 551.8 286.88C551.84 287.29 552.2 287.58 552.61 287.54C553.02 287.5 553.31 287.14 553.27 286.73Z" fill="#C2FFF8"/>
<path d="M555.88 299.73L551.8 300.13C550.23 309.17 551.15 318.46 554.46 327.02L558.54 326.62C560.11 317.58 559.19 308.29 555.88 299.73Z" fill="#067070"/>
<path d="M588.219 286.74L587.583 286.803L589.13 302.447L589.767 302.384L588.219 286.74Z" fill="#C2FFF8"/>
<path d="M590.401 297.994L587.634 298.268L588.061 302.577L590.827 302.303L590.401 297.994Z" fill="#32F9EA"/>
<path d="M588.63 286.44C588.59 286.02 588.22 285.72 587.8 285.76C587.38 285.8 587.08 286.17 587.12 286.59C587.16 287.01 587.53 287.31 587.95 287.27C588.37 287.23 588.67 286.86 588.63 286.44Z" fill="#C2FFF8"/>
<path d="M591.31 299.85L587.1 300.27C585.48 309.6 586.43 319.19 589.85 328.02L594.06 327.6C595.68 318.27 594.73 308.68 591.31 299.85Z" fill="#067070"/>
<path d="M554.5 334.96L559.87 328.34L561.71 335.92C561.71 335.92 556.91 335.39 554.5 334.95V334.96Z" fill="#DFE8E6"/>
<path d="M595.58 330.9L592.09 335.03C592.09 335.03 595.67 334.56 599.63 333.59L595.58 330.9Z" fill="#DFE8E6"/>
</svg>
