<svg width="1080" height="604" viewBox="0 0 1080 604" fill="none" xmlns="http://www.w3.org/2000/svg">
<path d="M1082 603.56H0C0 603.56 38.8112 429.711 190.84 475.441C155.366 362.353 280.314 300.856 331.199 360.27C339.289 321.137 365.5 343.624 365.5 343.624C365.5 343.624 329.925 44.3107 629.736 71.7197C721.293 -56.2366 988.117 1.46118 1010.77 131.46C1079.57 127.6 1079.82 173.329 1079.82 173.329L1082 603.581V603.56Z" fill="#40E0D0"/>
<path d="M608.237 3.44214H321.492V379.897H608.237V3.44214Z" fill="#008080"/>
<g style="mix-blend-mode:multiply" opacity="0.4">
<path d="M590.804 21.354H338.946V361.965H590.804V21.354Z" fill="#008080"/>
</g>
<path d="M580.934 29.9934H348.795V353.305H580.934V29.9934Z" fill="#46D4E8"/>
<path d="M454.712 60.9766H369.626C367.159 60.9766 365.157 58.9546 365.157 56.4629C365.157 53.9712 367.159 51.9492 369.626 51.9492H454.712C457.179 51.9492 459.181 53.9712 459.181 56.4629C459.181 58.9546 457.179 60.9766 454.712 60.9766Z" fill="white"/>
<path d="M454.712 84.117H369.626C367.159 84.117 365.157 82.095 365.157 79.6033C365.157 77.1116 367.159 75.0896 369.626 75.0896H454.712C457.179 75.0896 459.181 77.1116 459.181 79.6033C459.181 82.095 457.179 84.117 454.712 84.117Z" fill="white"/>
<path d="M454.712 107.237H369.626C367.159 107.237 365.157 105.215 365.157 102.723C365.157 100.231 367.159 98.2095 369.626 98.2095H454.712C457.179 98.2095 459.181 100.231 459.181 102.723C459.181 105.215 457.179 107.237 454.712 107.237Z" fill="white"/>
<path d="M454.712 130.377H369.626C367.159 130.377 365.157 128.355 365.157 125.864C365.157 123.372 367.159 121.35 369.626 121.35H454.712C457.179 121.35 459.181 123.372 459.181 125.864C459.181 128.355 457.179 130.377 454.712 130.377Z" fill="white"/>
<path d="M415.597 153.497H369.626C367.159 153.497 365.157 151.475 365.157 148.983C365.157 146.492 367.159 144.47 369.626 144.47H415.597C418.065 144.47 420.067 146.492 420.067 148.983C420.067 151.475 418.065 153.497 415.597 153.497Z" fill="white"/>
<path d="M464.865 339.478C421.119 339.478 385.543 303.532 385.543 259.375C385.543 215.218 421.139 179.272 464.865 179.272C508.59 179.272 544.186 215.218 544.186 259.375C544.186 303.532 508.59 339.478 464.865 339.478ZM464.865 181.294C422.231 181.294 387.566 216.321 387.566 259.355C387.566 302.388 422.251 337.415 464.865 337.415C507.478 337.415 542.163 302.388 542.163 259.355C542.163 216.321 507.478 181.294 464.865 181.294Z" fill="white"/>
<path d="M464.864 332.207C504.696 332.207 536.986 299.599 536.986 259.375C536.986 219.151 504.696 186.543 464.864 186.543C425.033 186.543 392.743 219.151 392.743 259.375C392.743 299.599 425.033 332.207 464.864 332.207Z" fill="#008080"/>
<path d="M508.004 262.929C507.66 264.032 507.336 265.155 507.013 266.299C500.339 289.562 498.033 317.44 486.181 313.601C480.255 311.681 475.725 291.89 472.873 281.474C472.388 279.697 471.943 278.165 471.559 277.083C468.889 269.628 460.88 269.628 458.211 277.083C457.826 278.165 457.381 279.676 456.896 281.474C454.024 291.89 449.494 311.701 443.588 313.601C431.696 317.44 429.411 289.562 422.757 266.278C422.433 265.155 422.089 264.032 421.766 262.929C414.303 239.094 414.303 210.786 430.543 208.56C446.804 206.314 450.525 224.205 464.905 224.205C479.285 224.205 483.006 206.334 499.246 208.56C515.487 210.786 515.487 239.094 508.044 262.929H508.004Z" fill="white"/>
<path d="M464.865 261.336C472.784 261.336 479.204 254.853 479.204 246.855C479.204 238.858 472.784 232.375 464.865 232.375C456.945 232.375 450.525 238.858 450.525 246.855C450.525 254.853 456.945 261.336 464.865 261.336Z" fill="white"/>
<path d="M466.543 239.033H463.186V254.677H466.543V239.033Z" fill="white"/>
<path d="M472.61 248.55V245.16H457.118V248.55H472.61Z" fill="white"/>
<path d="M456.876 281.453C454.004 291.869 449.473 311.681 443.568 313.58C431.676 317.42 429.39 289.541 422.736 266.258C429.532 273.774 440.17 279.962 456.896 281.433L456.876 281.453Z" fill="#C9E3FA"/>
<path d="M507.013 266.299C500.339 289.562 498.033 317.44 486.181 313.601C480.256 311.681 475.725 291.89 472.874 281.474C489.963 280.003 500.521 273.754 507.033 266.299H507.013Z" fill="#C9E3FA"/>
<path d="M404.291 209.091L389.082 193.732H373.105V191.69H389.912L405.727 207.661L404.291 209.091Z" fill="white"/>
<path d="M517.913 201.269L516.478 199.819L534.012 182.132V121.329H536.035V182.969L517.913 201.269Z" fill="white"/>
<path d="M398.555 301.868L377.361 323.271L378.791 324.715L399.986 303.312L398.555 301.868Z" fill="white"/>
<path d="M381.883 327.101C381.883 322.199 377.959 318.237 373.105 318.237C368.251 318.237 364.328 322.199 364.328 327.101C364.328 332.003 368.251 335.965 373.105 335.965C377.959 335.965 381.883 332.003 381.883 327.101Z" fill="white"/>
<path d="M381.883 193.324C381.883 188.422 377.959 184.46 373.105 184.46C368.251 184.46 364.328 188.422 364.328 193.324C364.328 198.226 368.251 202.188 373.105 202.188C377.959 202.188 381.883 198.226 381.883 193.324Z" fill="white"/>
<path d="M557.149 51.9492H512.898C507.827 51.9492 503.716 56.1007 503.716 61.2217V117.592C503.716 122.713 507.827 126.864 512.898 126.864H557.149C562.221 126.864 566.331 122.713 566.331 117.592V61.2217C566.331 56.1007 562.221 51.9492 557.149 51.9492Z" fill="white"/>
<path d="M543.902 67.7776H526.125C521.054 67.7776 516.943 71.929 516.943 77.0501V101.763C516.943 106.884 521.054 111.036 526.125 111.036H543.902C548.973 111.036 553.084 106.884 553.084 101.763V77.0501C553.084 71.929 548.973 67.7776 543.902 67.7776Z" fill="#C9E3FA"/>
<g style="mix-blend-mode:multiply" opacity="0.4">
<path d="M580.934 29.9934H348.795V39.4497H580.934V29.9934Z" fill="#008080"/>
</g>
<path d="M958.427 404.304H837.585V423.155H958.427V404.304Z" fill="#46D4E8"/>
<path d="M958.427 413.719H837.585V424.401H958.427V413.719Z" fill="#008080"/>
<g style="mix-blend-mode:multiply" opacity="0.4">
<path d="M421.543 408.123H379.718V450.36H421.543V408.123Z" fill="#008080"/>
</g>
<g style="mix-blend-mode:multiply" opacity="0.4">
<path d="M471.053 408.123H429.229V450.36H471.053V408.123Z" fill="#008080"/>
</g>
<g style="mix-blend-mode:multiply" opacity="0.4">
<path d="M520.563 408.123H478.738V450.36H520.563V408.123Z" fill="#008080"/>
</g>
<g style="mix-blend-mode:multiply" opacity="0.4">
<path d="M570.073 408.123H528.249V450.36H570.073V408.123Z" fill="#008080"/>
</g>
<path d="M450.14 439.576C455.792 439.576 460.374 434.949 460.374 429.242C460.374 423.534 455.792 418.907 450.14 418.907C444.489 418.907 439.907 423.534 439.907 429.242C439.907 434.949 444.489 439.576 450.14 439.576Z" fill="white"/>
<g style="mix-blend-mode:multiply" opacity="0.4">
<path d="M817.967 552.337C817.967 556.279 866.385 559.485 926.109 559.485C985.832 559.485 1034.25 556.279 1034.25 552.337C1034.25 548.395 985.832 545.188 926.109 545.188C866.385 545.188 817.967 548.395 817.967 552.337Z" fill="#008080"/>
</g>
<g style="mix-blend-mode:multiply" opacity="0.4">
<path d="M182.852 551.52C182.852 555.012 280.517 557.851 400.975 557.851C521.433 557.851 619.098 555.012 619.098 551.52C619.098 548.027 521.433 545.188 400.975 545.188C280.517 545.188 182.852 548.027 182.852 551.52Z" fill="#008080"/>
</g>
<path d="M656.493 381.899C656.493 381.899 665.979 412.29 679.59 436.267C688.448 451.912 699.026 464.779 709.866 464.779C720.706 464.779 730.212 452.627 738.322 437.595C751.387 413.433 760.003 381.899 760.003 381.899L771.066 331.431L772.947 322.873L722.81 300.346L667.819 301.959L663.45 332.861L656.493 381.899Z" fill="#008080"/>
<g style="mix-blend-mode:multiply" opacity="0.4">
<path d="M656.493 381.899C656.493 381.899 665.979 412.29 679.59 436.267C685.232 413.964 697.003 374.178 709.199 373.259C722.001 372.279 733.468 416.048 738.322 437.595C751.387 413.433 760.003 381.899 760.003 381.899L771.066 331.431L674.756 312.825L663.45 332.861L656.493 381.899Z" fill="#008080"/>
</g>
<path d="M597.943 140.875C650.547 133.645 662.621 191.547 709.199 191.547C755.776 191.547 767.85 133.645 820.455 140.875C873.059 148.105 873.059 239.788 848.911 316.991C824.762 394.194 818.533 494.067 778.185 481.037C755.756 473.806 739.414 386.902 730.799 362.782C722.183 338.661 696.235 338.661 687.599 362.782C678.983 386.902 662.621 473.806 640.212 481.037C599.884 494.047 593.635 394.194 569.487 316.991C545.338 239.788 545.338 148.126 597.943 140.875Z" fill="white"/>
<g style="mix-blend-mode:multiply" opacity="0.4">
<path d="M662.338 187.728C662.338 187.728 675.666 205.497 709.198 205.497C742.731 205.497 752.762 189.096 752.762 189.096C752.762 189.096 733.165 200.595 709.198 200.595C685.232 200.595 662.338 187.748 662.338 187.748V187.728Z" fill="#008080"/>
</g>
<path d="M608.075 155.907C608.075 155.907 552.255 170.653 582.511 260.866C572.156 184.256 608.075 155.907 608.075 155.907Z" fill="#C9E3FA"/>
<g style="mix-blend-mode:multiply" opacity="0.4">
<path d="M608.318 512.592C608.318 506.281 653.48 501.154 709.199 501.154C764.918 501.154 810.079 506.281 810.079 512.592C810.079 518.903 764.918 524.029 709.199 524.029C653.48 524.029 608.318 518.903 608.318 512.592Z" fill="#008080"/>
</g>
<path d="M739.879 314.949C739.879 307.78 745.644 301.959 752.742 301.959C745.644 301.959 739.879 296.138 739.879 288.969C739.879 296.138 734.115 301.959 727.017 301.959C734.115 301.959 739.879 307.78 739.879 314.949Z" fill="white"/>
<path d="M791.917 363.272C791.917 349.935 802.637 339.11 815.843 339.11C802.637 339.11 791.917 328.286 791.917 314.949C791.917 328.286 781.198 339.11 767.992 339.11C781.198 339.11 791.917 349.935 791.917 363.272Z" fill="white"/>
<path d="M825.43 234.356C825.43 227.187 831.194 221.366 838.293 221.366C831.194 221.366 825.43 215.545 825.43 208.376C825.43 215.545 819.666 221.366 812.567 221.366C819.666 221.366 825.43 227.187 825.43 234.356Z" fill="white"/>
<path d="M731.425 144.429C731.425 137.26 737.189 131.439 744.288 131.439C737.189 131.439 731.425 125.619 731.425 118.45C731.425 125.619 725.661 131.439 718.562 131.439C725.661 131.439 731.425 137.26 731.425 144.429Z" fill="white"/>
<path d="M767.992 84.893C767.992 81.5843 770.641 78.9088 773.918 78.9088C770.641 78.9088 767.992 76.2332 767.992 72.9246C767.992 76.2332 765.342 78.9088 762.066 78.9088C765.342 78.9088 767.992 81.5843 767.992 84.893Z" fill="white"/>
<path d="M627.046 337.211C627.046 333.902 629.695 331.227 632.972 331.227C629.695 331.227 627.046 328.551 627.046 325.242C627.046 328.551 624.397 331.227 621.12 331.227C624.397 331.227 627.046 333.902 627.046 337.211Z" fill="white"/>
<path d="M705.68 94.2473C705.68 90.9386 708.329 88.263 711.606 88.263C708.329 88.263 705.68 85.5875 705.68 82.2788C705.68 85.5875 703.03 88.263 699.754 88.263C703.03 88.263 705.68 90.9386 705.68 94.2473Z" fill="white"/>
<path d="M929.648 170.49C929.648 170.49 912.841 208.969 946.151 222.837C972.828 233.947 945.626 164.179 945.626 164.179" fill="#FFC5A4"/>
<path d="M972.221 211.134L978.632 233.191L949.468 238.543L949.347 211.277" fill="#FFC5A4"/>
<path d="M975.74 218.854C970.846 221.958 965.81 223.306 961.057 223.265C949.084 223.184 939.012 214.299 938.122 202.923C936.888 187.033 925.401 199.063 932.945 174.023C920.891 176.209 917.149 159.89 924.309 156.438C931.448 152.987 971.311 131.337 966.781 155.356C966.781 155.356 982.859 151.189 984.841 165.772C985.124 167.876 985.488 170.245 985.873 172.777C988.097 187.932 990.524 209.459 975.74 218.854Z" fill="#008080"/>
<g style="mix-blend-mode:multiply" opacity="0.4">
<path d="M963.989 158.092L936.12 170.776C936.12 170.776 942.268 155.335 963.989 158.092Z" fill="#008080"/>
</g>
<g style="mix-blend-mode:multiply" opacity="0.4">
<path d="M975.74 218.854C970.846 221.958 958.873 224.879 954.12 224.838V218.037C954.12 218.037 957.882 201.31 944.291 183.725C961.947 187.707 978.875 179.109 985.893 172.777C988.117 187.932 990.544 209.459 975.76 218.854H975.74Z" fill="#008080"/>
</g>
<path d="M964.09 440.822L965.223 465.535L968.54 538.653H985.69C987.369 537.427 995.459 493.536 1000.47 465.535C1002.84 452.32 1004.52 442.66 1004.52 442.66L964.09 440.822Z" fill="#008080"/>
<path d="M963.585 440.781L964.091 440.822L964.01 439.045C964.01 439.045 963.848 439.658 963.585 440.781Z" fill="#008080"/>
<path d="M920.688 539.47H937.799C939.396 535.528 950.075 493.924 957.295 465.535C960.248 453.914 962.634 444.519 963.585 440.781L925.421 439.045L924.167 465.535L920.688 539.47Z" fill="#008080"/>
<g style="mix-blend-mode:multiply" opacity="0.4">
<path d="M1004.52 442.66L964.09 440.822L965.223 465.535H1000.47C1002.84 452.32 1004.52 442.66 1004.52 442.66Z" fill="#008080"/>
</g>
<g style="mix-blend-mode:multiply" opacity="0.4">
<path d="M924.167 465.535H957.295C960.248 453.914 962.634 444.519 963.585 440.781L925.421 439.045L924.167 465.535Z" fill="#008080"/>
</g>
<path d="M914.378 454.567H1011.42C1033.89 281.699 1010.24 242.199 993.982 232.089C968.54 216.28 949.953 234.09 949.953 234.09L940.144 294.933L931.346 349.445L914.378 454.567Z" fill="white"/>
<path d="M931.347 349.445C1007.74 342.746 962.614 263.337 962.614 263.337L940.144 294.933L931.347 349.445Z" fill="#E2F4FF"/>
<path d="M941.641 253.411L914.378 293.646C914.378 293.646 883.131 280.575 871.987 284.885C876.983 310.476 896.702 315.827 896.702 315.827L942.329 306.411" fill="#E2F4FF"/>
<path d="M828.666 265.625L826.826 268.157L823.084 273.263L778.266 242.546C778.266 242.546 747.909 255.801 742.731 245.446C741.801 243.587 741.235 241.014 740.972 238.053C739.758 224.593 744.612 203.066 747.909 203.638C751.933 204.333 746.169 236.643 752.5 238.543C758.83 240.442 775.516 231.864 775.516 231.864L828.666 265.625Z" fill="#E2F4FF"/>
<g style="mix-blend-mode:multiply" opacity="0.4">
<path d="M826.825 268.157L823.084 273.263L778.266 242.546C778.266 242.546 747.909 255.801 742.731 245.446C741.801 243.587 741.235 241.014 740.972 238.052C744.43 241.872 749.769 245.834 756.605 244.956C769.226 243.322 776.041 238.543 776.041 238.543L826.825 268.157Z" fill="#008080"/>
</g>
<path d="M813.922 271.732C817.016 275.53 838.819 290.828 872.553 315.745C887.358 326.672 902.951 338.089 917.412 348.648C949.427 372.013 975.841 391.11 975.841 391.11C975.841 391.11 1000.96 387.045 993.477 359.759C993.295 359.044 980.391 350.956 961.643 339.519C949.266 331.982 934.36 322.975 918.868 313.662C873.706 286.539 831.598 263.97 825.43 260.539C813.922 254.146 806.439 262.622 813.922 271.732Z" fill="#46D4E8"/>
<g style="mix-blend-mode:multiply" opacity="0.4">
<path d="M872.554 315.745C887.358 326.672 902.951 338.089 917.412 348.648C944.655 349.915 961.178 340.05 961.178 340.05L961.643 339.519C949.266 331.982 934.36 322.975 918.868 313.662H907.138C907.138 313.662 887.722 313.458 872.554 315.745Z" fill="#008080"/>
</g>
<path d="M872.574 280.718C882.241 280.759 887.56 287.703 887.601 290.665C887.661 296.812 882.524 299.998 880.421 299.508C878.318 298.998 879.936 290.951 879.936 290.951C879.936 290.951 875.628 298.773 873.181 297.548C870.733 296.322 874.01 288.663 874.01 288.663C874.01 288.663 869.884 294.198 867.801 292.973C865.697 291.747 869.318 286.539 869.318 286.539C869.318 286.539 865.151 291.073 863.533 289.337C861.915 287.601 864.787 280.718 872.594 280.739L872.574 280.718Z" fill="#FFC5A4"/>
<path d="M957.679 232.538C957.679 232.538 939.902 219.609 923.135 299.549C892.677 300.876 864.484 302.674 864.484 302.674V317.542C864.484 317.542 902.061 344.706 945.484 335.005C988.906 325.304 957.679 232.517 957.679 232.517V232.538Z" fill="white"/>
<path d="M985.69 233.477V216.485C985.69 216.485 957.882 211.134 942.309 224.409C945.079 232.538 950.014 242.525 950.014 242.525" fill="white"/>
<path d="M932.944 193.651C932.944 193.651 934.663 186.359 939.477 190.179C944.29 193.998 943.947 206.13 936.039 203.189" fill="#FFC5A4"/>
<path d="M986.075 538.673V549.906H950.985C950.985 549.906 957.214 538.673 968.924 538.673H986.054H986.075Z" fill="white"/>
<path d="M938.223 538.673V549.906H903.133C903.133 549.906 909.363 538.673 921.073 538.673H938.203H938.223Z" fill="white"/>
<path d="M953.472 388.761H933.207C933.207 388.761 927.747 414.291 938.041 414.311C954.362 414.352 953.472 388.761 953.472 388.761Z" fill="#E2F4FF"/>
<path d="M864.484 302.674L853.502 299.161C853.502 299.161 852.875 294.096 850.569 293.667C848.264 293.238 849.659 298.773 849.659 298.773L842.803 293.647C842.803 293.647 836.796 313.499 864.484 315.827V302.674Z" fill="#FFC5A4"/>
<g style="mix-blend-mode:multiply" opacity="0.4">
<path d="M975.841 391.11C975.841 391.11 1000.96 387.045 993.477 359.759C993.477 359.759 968.236 361.515 975.841 391.11Z" fill="#008080"/>
</g>
<path d="M964.01 439.045C964.01 439.045 963.848 439.658 963.585 440.781L964.091 440.822L964.01 439.045Z" fill="#008080"/>
<path d="M877.488 368.031L875.526 384.533L874.03 397.115H852.309L850.812 384.533L848.85 368.031H877.488Z" fill="white"/>
<path d="M880.198 397.115H846.524V404.304H880.198V397.115Z" fill="white"/>
<path d="M875.526 384.533L874.029 397.114H852.308L850.812 384.533H875.526Z" fill="#E2F4FF"/>
<path d="M122.157 450.36C136.711 450.36 148.51 438.445 148.51 423.747C148.51 409.05 136.711 397.135 122.157 397.135C107.603 397.135 95.8042 409.05 95.8042 423.747C95.8042 438.445 107.603 450.36 122.157 450.36Z" fill="#40E0D0"/>
<path d="M155.346 388.965C162.628 388.965 168.532 383.003 168.532 375.649C168.532 368.295 162.628 362.333 155.346 362.333C148.063 362.333 142.159 368.295 142.159 375.649C142.159 383.003 148.063 388.965 155.346 388.965Z" fill="#40E0D0"/>
<path d="M1036.88 88.263C1036.88 95.6156 1030.97 101.579 1023.69 101.579C1016.41 101.579 1010.51 95.6156 1010.51 88.263C1010.51 80.9103 1016.41 74.9465 1023.69 74.9465C1030.97 74.9465 1036.88 80.9103 1036.88 88.263Z" fill="#40E0D0"/>
<path d="M279.181 350.916L237.215 237.44L247.57 230.516L290.992 350.65" fill="#008080"/>
<path d="M278.248 274.462C295.545 256.995 295.545 228.674 278.248 211.207C260.951 193.739 232.906 193.739 215.609 211.207C198.312 228.674 198.312 256.995 215.609 274.462C232.906 291.93 260.951 291.93 278.248 274.462Z" fill="#008080"/>
<path d="M284.339 241.974C284.703 258.619 274.368 272.998 259.685 278.369C256.327 279.595 252.727 280.35 248.966 280.555C248.581 280.596 248.177 280.616 247.772 280.616C243.424 280.718 239.217 280.064 235.314 278.778C233.817 278.288 232.341 277.695 230.945 277.001C229.267 276.204 227.649 275.285 226.132 274.244C222.593 271.854 219.478 268.872 216.95 265.421C212.42 259.355 209.689 251.839 209.507 243.669C209.042 222.796 225.424 205.476 246.094 205.006C247.995 204.966 249.896 205.047 251.736 205.292C256.53 205.925 261.02 207.457 265.085 209.724C265.934 210.194 266.784 210.725 267.593 211.277C268.968 212.196 270.282 213.196 271.516 214.299C275.521 217.812 278.757 222.163 280.981 227.085C282.761 231.027 283.914 235.316 284.237 239.85C284.298 240.565 284.359 241.259 284.359 241.953L284.339 241.974Z" fill="#46D4E8"/>
<path d="M369.788 540.348L334.9 541.778L262.779 324.773L260.736 318.625L283.489 310.067L285.916 316.583L369.788 540.348Z" fill="white"/>
<path d="M285.916 316.583C279.1 318.972 269.21 322.444 262.779 324.773L260.736 318.625L283.489 310.067L285.916 316.583Z" fill="#46D4E8"/>
<path d="M265.064 209.745L226.112 274.244C222.572 271.854 219.458 268.872 216.93 265.421L251.716 205.292C256.509 205.926 260.999 207.457 265.064 209.724V209.745Z" fill="white"/>
<path d="M271.496 214.32L235.314 278.798C233.817 278.308 232.341 277.716 230.945 277.021L267.592 211.297C268.968 212.216 270.282 213.217 271.516 214.32H271.496Z" fill="white"/>
<path d="M284.217 239.87L259.685 278.369C256.328 279.595 252.728 280.351 248.966 280.555L280.961 227.105C282.741 231.047 283.894 235.336 284.217 239.87Z" fill="white"/>
<path d="M500.844 528.849V551.724H243C235.84 551.724 229.773 546.986 227.71 540.45C227.224 538.898 226.961 537.264 226.961 535.548C226.961 526.582 234.182 519.352 243 519.352C243.202 519.352 243.384 519.372 243.586 519.372L500.844 528.849Z" fill="#46D4E8"/>
<path d="M567.727 528.849H500.844V551.724H567.727V528.849Z" fill="white"/>
<g style="mix-blend-mode:multiply" opacity="0.4">
<path d="M567.727 546.434V551.724H243C235.84 551.724 229.773 546.986 227.71 540.45L500.844 545.27L567.727 546.434Z" fill="#008080"/>
</g>
<path d="M512.898 515.471V538.489H507.336V515.471C507.336 513.919 508.59 512.673 510.127 512.673C511.664 512.673 512.898 513.919 512.898 515.471Z" fill="#46D4E8"/>
<path d="M518.439 515.471V538.489H512.898V515.471C512.898 513.919 514.132 512.673 515.669 512.673C517.206 512.673 518.439 513.919 518.439 515.471Z" fill="#46D4E8"/>
<path d="M524.001 515.471V538.489H518.439V515.471C518.439 513.919 519.693 512.673 521.23 512.673C522.768 512.673 524.001 513.919 524.001 515.471Z" fill="#46D4E8"/>
<path d="M529.543 515.471V538.489H524.001V515.471C524.001 513.919 525.235 512.673 526.772 512.673C528.309 512.673 529.543 513.919 529.543 515.471Z" fill="#46D4E8"/>
<path d="M535.104 515.471V538.489H529.542V515.471C529.542 513.919 530.796 512.673 532.333 512.673C533.871 512.673 535.104 513.919 535.104 515.471Z" fill="#46D4E8"/>
<path d="M540.666 515.471V538.489H535.104V515.471C535.104 513.919 536.338 512.673 537.875 512.673C539.412 512.673 540.666 513.919 540.666 515.471Z" fill="#46D4E8"/>
<path d="M546.208 515.471V538.489H540.666V515.471C540.666 513.919 541.9 512.673 543.437 512.673C544.974 512.673 546.208 513.919 546.208 515.471Z" fill="#46D4E8"/>
<path d="M551.769 515.471V538.489H546.208V515.471C546.208 513.919 547.461 512.673 548.978 512.673C550.495 512.673 551.769 513.919 551.769 515.471Z" fill="#46D4E8"/>
<path d="M557.311 515.471V538.489H551.77V515.471C551.77 513.919 553.003 512.673 554.54 512.673C556.077 512.673 557.311 513.919 557.311 515.471Z" fill="#46D4E8"/>
<path d="M562.873 515.471V538.489H557.311V515.471C557.311 513.919 558.565 512.673 560.082 512.673C561.599 512.673 562.873 513.919 562.873 515.471Z" fill="#46D4E8"/>
<path d="M512.898 525.438V538.489H507.336V525.438C507.336 523.886 508.59 522.62 510.127 522.62C511.664 522.62 512.898 523.886 512.898 525.438Z" fill="white"/>
<path d="M518.439 525.438V538.489H512.898V525.438C512.898 523.886 514.132 522.62 515.669 522.62C517.206 522.62 518.439 523.886 518.439 525.438Z" fill="white"/>
<path d="M524.001 525.438V538.489H518.439V525.438C518.439 523.886 519.693 522.62 521.23 522.62C522.768 522.62 524.001 523.886 524.001 525.438Z" fill="white"/>
<path d="M529.543 525.438V538.489H524.001V525.438C524.001 523.886 525.235 522.62 526.772 522.62C528.309 522.62 529.543 523.886 529.543 525.438Z" fill="white"/>
<path d="M535.104 525.438V538.489H529.542V525.438C529.542 523.886 530.796 522.62 532.333 522.62C533.871 522.62 535.104 523.886 535.104 525.438Z" fill="white"/>
<path d="M540.666 525.438V538.489H535.104V525.438C535.104 523.886 536.338 522.62 537.875 522.62C539.412 522.62 540.666 523.886 540.666 525.438Z" fill="white"/>
<path d="M546.208 525.438V538.489H540.666V525.438C540.666 523.886 541.9 522.62 543.437 522.62C544.974 522.62 546.208 523.886 546.208 525.438Z" fill="white"/>
<path d="M551.769 525.438V538.489H546.208V525.438C546.208 523.886 547.461 522.62 548.978 522.62C550.495 522.62 551.769 523.886 551.769 525.438Z" fill="white"/>
<path d="M557.311 525.438V538.489H551.77V525.438C551.77 523.886 553.003 522.62 554.54 522.62C556.077 522.62 557.311 523.886 557.311 525.438Z" fill="white"/>
<path d="M562.873 525.438V538.489H557.311V525.438C557.311 523.886 558.565 522.62 560.082 522.62C561.599 522.62 562.873 523.886 562.873 525.438Z" fill="white"/>
</svg>
