<svg width="769" height="846" viewBox="0 0 769 846" fill="none" xmlns="http://www.w3.org/2000/svg">
<g clip-path="url(#clip0_692_555)">
<path d="M153.892 232.988C148.564 219.129 155.688 205.939 171.19 207.298C186.921 208.698 227.701 210.768 262.402 173.497C334.456 96.0923 381.023 200.65 306.023 255.772C254.693 293.523 175.18 288.423 153.892 232.967V232.988Z" fill="#C3E5E5"/>
<path d="M299.296 486.629L68.4875 486.629C62.9718 486.629 58.5 482.155 58.5 476.636L58.5 155.499C58.5 149.98 62.9718 145.506 68.4875 145.506L299.296 145.506C304.812 145.506 309.284 149.98 309.284 155.499L309.284 476.636C309.284 482.155 304.812 486.629 299.296 486.629Z" fill="#29A392" stroke="#008080"/>
<path d="M297.104 471.872H70.6588L70.6588 161.852H297.104L297.104 471.872Z" fill="white" stroke="#008080"/>
<path d="M218.028 190.596H150.633C145.034 190.596 140.479 186.039 140.479 180.437V164.864H228.182V180.437C228.182 186.039 223.627 190.596 218.028 190.596Z" stroke="#008080" stroke-width="1.21" stroke-miterlimit="10"/>
<path d="M237.834 176.822H131.204C127.603 176.822 124.684 173.902 124.684 170.299V159.45C124.684 155.847 127.603 152.927 131.204 152.927H237.834C241.434 152.927 244.353 155.847 244.353 159.45V170.299C244.353 173.902 241.434 176.822 237.834 176.822Z" fill="#C3E5E5" stroke="#008080"/>
<path d="M265.494 211.269H100.765" stroke="#008080" stroke-width="1.19" stroke-miterlimit="10"/>
<path d="M265.494 225.588H202.109" stroke="#008080" stroke-width="1.19" stroke-miterlimit="10"/>
<path d="M228.745 283.048L228.55 282.154C226.911 274.647 224.861 269.826 222.37 266.787C219.9 263.774 216.968 262.478 213.452 262.085C209.902 261.688 205.781 262.214 200.944 262.854L200.638 262.895C195.897 263.523 190.515 264.236 184.456 264.236C178.327 264.236 172.866 263.481 168.053 262.815L167.906 262.795C163.036 262.122 158.876 261.558 155.299 261.929C151.758 262.297 148.816 263.579 146.368 266.608C143.897 269.664 141.899 274.533 140.364 282.143C140.243 282.79 140.142 283.418 140.039 284.052V284.053V284.053V284.053V284.053V284.054V284.054V284.054V284.055V284.055V284.055V284.056V284.056V284.056V284.057V284.057V284.057V284.058V284.058V284.058V284.059V284.059V284.059V284.06V284.06V284.06V284.061V284.061V284.061V284.062V284.062V284.062V284.062V284.063V284.063V284.063V284.064V284.064V284.064V284.065V284.065V284.065V284.066V284.066V284.066V284.067V284.067V284.067V284.068V284.068V284.068V284.068V284.069V284.069V284.069V284.07V284.07V284.07V284.071V284.071V284.071V284.072V284.072V284.072V284.073V284.073V284.073V284.073V284.074V284.074V284.074V284.075V284.075V284.075V284.076V284.076V284.076V284.077V284.077V284.077V284.077V284.078V284.078V284.078V284.079V284.079V284.079V284.08V284.08V284.08V284.081V284.081V284.081V284.081V284.082V284.082V284.082V284.083V284.083V284.083V284.084V284.084V284.084V284.085V284.085V284.085V284.086V284.086V284.086V284.086V284.087V284.087V284.087V284.088V284.088V284.088V284.089V284.089V284.089V284.089V284.09V284.09V284.09V284.091V284.091V284.091V284.092V284.092V284.092V284.093V284.093V284.093V284.093V284.094V284.094V284.094V284.095V284.095V284.095V284.096V284.096V284.096V284.097V284.097V284.097V284.097V284.098V284.098V284.098V284.099V284.099V284.099V284.1V284.1V284.1V284.101V284.101V284.101V284.101V284.102V284.102V284.102V284.103V284.103V284.103V284.104V284.104V284.104V284.105V284.105V284.105V284.105V284.106V284.106V284.106V284.107V284.107V284.107V284.108V284.108V284.108V284.108V284.109V284.109V284.109V284.11V284.11V284.11V284.111V284.111V284.111V284.112V284.112V284.112V284.113V284.113V284.113V284.113V284.114V284.114V284.114V284.115V284.115V284.115V284.116V284.116V284.116V284.117V284.117V284.117V284.117V284.118V284.118V284.118V284.119V284.119V284.119V284.12V284.12V284.12V284.121V284.121V284.121V284.122V284.122V284.122V284.122V284.123V284.123V284.123V284.124V284.124V284.124V284.125V284.125V284.125V284.126V284.126V284.126V284.127V284.127V284.127V284.127V284.128V284.128V284.128V284.129V284.129V284.129V284.13V284.13V284.13V284.131V284.131V284.131V284.132V284.132V284.132V284.133V284.133V284.133V284.134V284.134V284.134V284.134V284.135V284.135V284.135V284.136V284.136V284.136V284.137V284.137V284.137V284.138V284.138V284.138V284.139V284.139V284.139V284.14V284.14V284.14V284.141V284.141V284.141V284.142V284.142V284.142V284.143V284.143V284.143V284.144V284.144V284.144V284.145V284.145V284.145V284.146V284.146V284.146V284.147V284.147V284.147V284.148V284.148V284.148V284.149V284.149V284.149V284.15V284.15V284.15V284.151V284.151V284.151V284.152V284.152V284.152V284.153V284.153V284.153V284.154V284.154V284.154V284.155V284.155V284.155V284.156V284.156V284.156V284.157V284.157V284.157V284.158V284.158V284.158V284.159V284.159V284.159V284.16V284.16V284.16V284.161V284.161V284.161V284.162V284.162V284.162V284.163V284.163V284.163V284.164V284.164V284.165V284.165V284.165V284.166V284.166V284.166V284.167V284.167V284.167V284.168V284.168V284.168V284.169V284.169V284.169V284.17V284.17V284.17V284.171V284.171V284.172V284.172V284.172V284.173V284.173V284.173V284.174V284.174V284.174V284.175V284.175V284.176V284.176V284.176V284.177V284.177V284.177V284.178V284.178V284.178V284.179V284.179V284.18V284.217L140.034 284.255C139.434 288.203 139.415 291.875 139.888 295.252L139.891 295.27L139.892 295.288C140.372 302.569 141.844 309.795 143.416 317.506C143.649 318.65 143.884 319.805 144.119 320.973C145.933 329.996 147.694 339.734 148.02 350.93C148.425 364.498 151.452 377.327 154.881 386.695C156.596 391.38 158.405 395.184 160.027 397.776C160.84 399.074 161.593 400.049 162.25 400.677C162.936 401.333 163.407 401.506 163.67 401.473C164.482 401.373 165.351 400.79 166.219 399.524C167.084 398.262 167.901 396.384 168.62 393.84C170.055 388.758 171.067 381.128 171.338 370.748L228.745 283.048ZM228.745 283.048L228.759 283.034C229.791 288.238 229.779 292.95 228.924 297.208L228.919 297.235L228.916 297.263C228.331 303.913 226.979 310.551 225.546 317.594C225.247 319.059 224.946 320.541 224.646 322.045C222.911 330.767 221.269 340.174 220.955 350.93C220.549 364.488 217.522 377.316 214.094 386.687C212.379 391.374 210.569 395.18 208.947 397.773C208.135 399.072 207.381 400.048 206.724 400.677C206.038 401.333 205.568 401.506 205.304 401.473L205.302 401.473C204.492 401.377 203.623 400.798 202.755 399.532C201.891 398.271 201.073 396.393 200.355 393.848C198.919 388.763 197.908 381.128 197.637 370.748L228.745 283.048ZM226.034 317.703C227.468 310.659 228.826 303.988 229.414 297.307L205.243 401.969C209.296 402.471 220.64 378.181 221.455 350.944C221.822 338.39 224.004 327.672 226.034 317.703Z" fill="#C3E5E5" stroke="#40E0D0"/>
<path d="M451.863 150.792C451.863 150.792 451.863 126.335 498.848 142.556C539.565 156.603 527.343 185.972 542.782 233.339C561.877 291.931 515.958 312.019 494.105 306.689L449.711 304.891L437.824 249.309L451.842 150.792H451.863Z" fill="black"/>
<path d="M460.345 156.06C460.345 156.06 451.675 141.01 437.928 147.949C423.847 155.057 420.818 169.814 423.095 192.034C425.916 219.752 380.435 267.307 441.668 303.365L480.066 304.933L460.345 156.081V156.06Z" fill="black"/>
<path d="M484.119 316.179C484.119 316.179 467.176 353.637 348.053 413.609L315.442 377.446L432.037 298.223L484.119 316.179Z" fill="white"/>
<path d="M315.191 368.186L296.054 279.849L313.979 278.323L338.673 347.534C331.089 354.745 323.276 361.643 315.191 368.186Z" fill="#DDAF8A"/>
<path d="M315.818 275.815L315.63 271.132C315.379 264.861 313.666 258.716 310.616 253.218L305.247 243.54C303.972 241.241 300.943 240.634 298.875 242.286C297.141 243.665 296.43 245.965 297.057 248.097L300.421 259.343L271.047 231.521C269.648 230.12 267.329 230.266 266.117 231.834L265.302 232.879C264.341 234.113 264.404 235.868 265.428 237.039L284.522 256.458L259.515 237.185C258.032 235.889 255.734 236.182 254.627 237.812L254.084 238.628C253.143 240.007 253.394 241.868 254.648 242.955L275.811 261.245L256.695 250.898C254.877 249.832 252.558 250.731 251.911 252.737L251.785 253.135C251.347 254.514 251.848 255.998 253.018 256.834L272.092 269L260.831 265.008C258.68 263.879 256.089 265.384 256.006 267.809C255.964 268.958 256.528 270.045 257.51 270.672L305.999 300.731L312.433 289.506C314.836 285.326 315.985 280.56 315.797 275.752L315.818 275.815Z" fill="#DDAF8A"/>
<path d="M300.442 259.364C300.442 259.364 295.532 267.035 299.522 277.738" stroke="black" stroke-width="0.58" stroke-linecap="round" stroke-linejoin="round"/>
<path d="M356.514 379.014L328.979 297.282L293.61 310.765L310.177 398.517C313.896 413.379 329.94 421.489 344.105 415.657C356.848 410.411 362.991 395.841 356.493 379.035L356.514 379.014Z" fill="white"/>
<path d="M348.701 354.829L355.073 374.415" stroke="#ACDBDB" stroke-width="0.83" stroke-linecap="round" stroke-linejoin="round"/>
<path d="M501.48 289.214C501.48 289.214 530.498 300.021 540.045 307.546C549.614 315.071 551.598 331.647 543.952 354.62C536.306 377.572 509.565 456.021 509.565 456.021L543.89 597.16H382.169L404.042 458.049L401.723 417.12C401.723 417.12 386.619 374.98 401.097 341.221C421.131 294.502 456.96 284.092 456.96 284.092L501.48 289.234V289.214Z" fill="white"/>
<path d="M500.667 289.506C487.895 307.809 471.666 325.185 458.571 338.034C451.957 344.525 446.145 349.857 441.987 353.566C439.909 355.42 438.244 356.869 437.099 357.853C436.832 358.083 436.593 358.287 436.384 358.466C440.75 333.921 445.955 315.481 450.094 303.127C452.201 296.836 454.032 292.123 455.335 288.985C455.987 287.416 456.506 286.24 456.862 285.459C457.04 285.068 457.177 284.775 457.27 284.581C457.271 284.578 457.273 284.574 457.274 284.571H482.985L500.667 289.506Z" fill="#DDAF8A" stroke="#008080"/>
<mask id="mask0_692_555" style="mask-type:luminance" maskUnits="userSpaceOnUse" x="435" y="284" width="67" height="76">
<path d="M500.668 289.506C487.895 307.809 471.666 325.185 458.571 338.034C451.957 344.525 446.145 349.857 441.987 353.566C439.909 355.42 438.244 356.869 437.099 357.853C436.832 358.083 436.593 358.287 436.384 358.466C440.75 333.921 445.955 315.481 450.094 303.127C452.201 296.836 454.032 292.123 455.335 288.985C455.987 287.416 456.506 286.24 456.862 285.459C457.04 285.068 457.177 284.775 457.27 284.581C457.271 284.578 457.273 284.574 457.274 284.571H482.985L500.668 289.506Z" fill="white" stroke="white"/>
</mask>
<g mask="url(#mask0_692_555)">
<path d="M508.927 319.041C509.513 319.175 510.017 319.292 510.431 319.389L488.939 329.628L488.807 329.69L488.73 329.814L454.914 383.83L411.205 372.383L414.217 311.518C430.345 307.659 454.592 309.661 474.932 312.668C485.165 314.18 494.385 315.942 501.047 317.327C504.378 318.019 507.069 318.617 508.927 319.041Z" fill="#008080" stroke="#008080"/>
</g>
<path d="M435.651 359.741L420.902 396.217L417.141 597.139" stroke="#008080" stroke-width="0.83" stroke-linecap="round" stroke-linejoin="round"/>
<path d="M502.023 290.593L516.104 317.621L492.998 321.906L496.8 339.841L420.902 396.217L418.437 327.968L432.162 316.827L426.981 307.859L446.389 289.381" stroke="#008080" stroke-width="0.83" stroke-linecap="round" stroke-linejoin="round"/>
<path d="M394.85 388.316C394.85 388.316 394.182 353.658 406.779 331.668" stroke="#008080" stroke-width="0.83" stroke-linecap="round" stroke-linejoin="round"/>
<path d="M536.557 305.121C536.557 305.121 579.718 319.084 610.032 467.936L564.112 484.241L516.125 358.759L536.536 305.121H536.557Z" fill="white"/>
<path d="M531.96 403.157L520.867 372.366" stroke="#ACDBDB" stroke-width="0.83" stroke-linecap="round" stroke-linejoin="round"/>
<path d="M539.419 451.088L456.354 451.464L450.547 471.155L533.13 482.568L539.419 451.088Z" fill="#DDAF8A"/>
<path d="M580.805 441.493L491.201 446.071L494.544 488.651L584.669 495.11C601.09 495.048 612.455 484.199 610.011 467.936C607.817 453.304 595.408 439.403 580.784 441.473L580.805 441.493Z" fill="white"/>
<path d="M573.137 441.932L491.201 446.071L491.598 451.088" stroke="#ACDBDB" stroke-width="0.83" stroke-linecap="round" stroke-linejoin="round"/>
<path d="M493.729 478.137L494.544 488.672L525.192 491.849" stroke="#ACDBDB" stroke-width="0.83" stroke-linecap="round" stroke-linejoin="round"/>
<path d="M424.913 391.221L457.65 507.464C458.861 511.77 455.623 516.034 451.173 516.034H375.087C372.12 516.034 369.509 514.09 368.652 511.268L333.095 395.025C331.779 390.699 335.017 386.309 339.529 386.309H418.436C421.445 386.309 424.098 388.316 424.913 391.221Z" fill="black"/>
<path d="M387.622 382.567C387.622 382.567 382.211 374.812 369.55 375.774C355.449 376.84 357.747 389.382 357.747 389.382L387.642 382.567H387.622Z" fill="black"/>
<path d="M412.294 386.664L439.599 483.614C440.602 487.209 437.907 490.763 434.189 490.763H370.741C368.276 490.763 366.083 489.153 365.372 486.791L335.727 389.842C334.62 386.225 337.315 382.567 341.096 382.567H406.904C409.411 382.567 411.626 384.24 412.315 386.664H412.294Z" fill="black"/>
<path d="M420.588 391.221L453.325 507.464C454.537 511.77 451.299 516.034 446.849 516.034H370.762C367.796 516.034 365.184 514.09 364.328 511.268L328.77 395.025C327.454 390.699 330.692 386.309 335.205 386.309H414.112C417.12 386.309 419.773 388.316 420.588 391.221Z" fill="#EAB65B"/>
<path d="M464.356 454.955C464.356 454.955 461.327 442.685 435.985 430.394L439.725 444.002C439.725 444.002 427.587 442.204 410.874 434.282C409.286 433.529 407.406 434.177 406.57 435.724C405.672 437.396 406.319 439.487 408.033 440.323L413.903 443.207L404.063 440.741C402.413 440.323 400.721 441.284 400.219 442.936C399.76 444.483 400.512 446.113 401.974 446.782C403.833 447.618 407.072 448.893 412.691 450.67C412.691 450.67 407.991 450.126 403.165 449.269C401.431 448.956 399.78 450.001 399.446 451.715C399.175 453.137 399.927 454.537 401.243 455.122C403.812 456.23 408.45 458.111 414.467 459.93C410.017 459.679 405.108 458.801 404.418 460.432C403.729 462.083 403.854 463.693 416.347 467.246C428.84 470.8 445.7 476.485 456.626 473.789L470.414 468.082V452.823L464.356 454.955Z" fill="#DDAF8A"/>
<path d="M422.468 209.426C420.985 215.822 425.435 222.846 432.392 225.124C439.37 227.403 446.222 224.058 447.705 217.662C449.189 211.265 444.739 204.242 437.782 201.963C430.804 199.685 423.952 203.03 422.468 209.426Z" fill="#B9A290"/>
<path d="M430.136 189.819C429.76 215.76 447.538 237.018 475.47 237.415C503.402 237.813 526.341 217.097 526.696 191.156C527.051 165.216 504.718 143.852 476.807 143.455C448.875 143.058 430.512 163.857 430.136 189.819Z" fill="black"/>
<path d="M484.119 228.448L491.201 290.99L457.274 294.92L460.198 235.785L484.119 228.448Z" fill="#DDAF8A"/>
<path d="M458.109 276.985L487.42 241.408L460.073 240.446L458.109 276.985Z" fill="#B9A290"/>
<path d="M482.678 157.502C474.488 155.182 465.776 154.513 457.441 156.06C446.139 158.129 431.619 164.714 429.634 184.593C426.313 217.745 431.828 242.683 448.729 250.522C461.703 256.542 469.662 254.493 484.725 246.341C490.345 243.31 499.621 232.106 499.809 225.48L505.554 209.154C505.554 209.154 521.807 168.602 482.678 157.502Z" fill="#DDAF8A"/>
<path d="M449.711 221.738L445.637 218.456L450.338 211.913" stroke="black" stroke-width="0.48" stroke-linecap="round" stroke-linejoin="round"/>
<path d="M459.927 206.562C459.927 206.562 465.254 193.351 483.033 203.489C483.033 203.489 473.924 215.446 459.927 206.562Z" fill="white"/>
<mask id="mask1_692_555" style="mask-type:luminance" maskUnits="userSpaceOnUse" x="459" y="199" width="25" height="11">
<path d="M459.927 206.562C459.927 206.562 465.254 193.351 483.033 203.489C483.033 203.489 473.924 215.446 459.927 206.562Z" fill="white"/>
</mask>
<g mask="url(#mask1_692_555)">
<path d="M464.251 203.468C463.771 207.022 466.174 210.262 469.621 210.722C473.068 211.182 476.222 208.673 476.703 205.141C477.183 201.587 474.781 198.347 471.334 197.887C467.908 197.427 464.732 199.936 464.251 203.468Z" fill="black"/>
</g>
<path d="M483.283 203.197C479.815 200.166 475.198 198.807 470.665 198.786C468.409 198.786 466.027 199.058 463.917 200.249C461.828 201.399 460.136 203.322 459.53 205.851C459.425 206.29 459.697 206.729 460.136 206.834C460.574 206.938 461.013 206.667 461.118 206.228C461.118 206.228 461.118 206.228 461.118 206.207V206.123C461.515 204.284 462.873 202.465 464.607 201.462C466.361 200.375 468.534 200.04 470.686 199.957C474.969 199.873 479.439 201.044 482.782 203.824C482.949 203.97 483.2 203.949 483.346 203.782C483.492 203.615 483.471 203.364 483.304 203.218L483.283 203.197Z" fill="black"/>
<path d="M444.822 206.248C444.822 206.248 439.683 192.682 429.718 201.88C429.718 201.88 435.275 214.756 444.822 206.248Z" fill="white"/>
<mask id="mask2_692_555" style="mask-type:luminance" maskUnits="userSpaceOnUse" x="429" y="198" width="16" height="12">
<path d="M444.822 206.248C444.822 206.248 439.683 192.682 429.718 201.88C429.718 201.88 435.275 214.756 444.822 206.248Z" fill="white"/>
</mask>
<g mask="url(#mask2_692_555)">
<path d="M441.062 202.904C441.521 205.998 439.934 208.799 437.489 209.175C435.045 209.551 432.684 207.335 432.225 204.263C431.765 201.19 433.353 198.368 435.797 197.992C438.242 197.615 440.602 199.831 441.062 202.904Z" fill="black"/>
</g>
<path d="M429.989 202.068C431.452 199.915 434.168 198.744 436.549 199.392H436.612C439.996 199.978 442.65 202.779 443.84 205.893V205.935C443.987 206.29 444.384 206.458 444.739 206.332C445.094 206.207 445.261 205.789 445.136 205.454C445.136 205.454 445.136 205.454 445.136 205.433C443.652 201.942 440.602 198.974 436.758 198.452H436.821C433.875 197.762 430.909 199.33 429.425 201.692C429.321 201.838 429.363 202.047 429.509 202.151C429.655 202.256 429.864 202.214 429.969 202.068H429.989Z" fill="black"/>
<path d="M440.999 187.164C440.999 187.164 441.981 190.738 438.158 191.386C435.254 191.888 431.849 192.139 430.219 192.912C429.3 193.351 428.235 192.954 427.691 191.972C427.253 191.177 427.253 190.153 427.691 189.38C428.611 187.812 432.099 185.366 435.63 184.718C440.143 183.882 440.978 187.143 440.978 187.143L440.999 187.164Z" fill="black"/>
<path d="M461.765 184.342C461.765 184.342 460.449 187.979 465.881 188.732C470.017 189.317 476.515 191.094 478.854 191.951C480.171 192.431 481.696 192.055 482.427 191.052C483.033 190.258 483.012 189.212 482.364 188.418C481.027 186.788 474.342 182.795 469.328 182.022C462.872 181.039 461.765 184.342 461.765 184.342Z" fill="black"/>
<path d="M446.201 227.214L465.839 226.734C465.839 226.734 465.839 234.719 456.522 234.928C446.556 235.137 446.222 227.214 446.222 227.214H446.201Z" fill="white"/>
<path opacity="0.3" d="M485.519 205.036C485.728 213.69 478.896 220.881 470.247 221.09C461.598 221.299 454.411 214.464 454.203 205.81C453.994 197.156 460.825 189.965 469.474 189.756C478.123 189.547 485.31 196.382 485.519 205.036Z" fill="white"/>
<path opacity="0.3" d="M445.721 206.019C445.909 214.673 439.725 221.863 431.911 222.072C424.098 222.281 417.601 215.446 417.413 206.792C417.225 198.138 423.409 190.947 431.222 190.738C439.035 190.529 445.533 197.365 445.721 206.019Z" fill="white"/>
<path d="M485.519 205.036C485.728 213.69 478.896 220.881 470.247 221.09C461.598 221.299 454.411 214.464 454.203 205.81C453.994 197.156 460.825 189.965 469.474 189.756C478.123 189.547 485.31 196.382 485.519 205.036Z" stroke="#EAB65B" stroke-width="0.6" stroke-miterlimit="10"/>
<path d="M445.721 206.019C445.909 214.673 439.725 221.863 431.911 222.072C424.098 222.281 417.601 215.446 417.413 206.792C417.225 198.138 423.409 190.947 431.222 190.738C439.035 190.529 445.533 197.365 445.721 206.019Z" stroke="#EAB65B" stroke-width="0.6" stroke-miterlimit="10"/>
<path d="M445.721 206.019C445.721 206.019 449.627 203.385 454.182 205.809" stroke="#EAB65B" stroke-width="0.6" stroke-miterlimit="10"/>
<path d="M485.498 204.639L497.281 211.286" stroke="#EAB65B" stroke-width="0.6" stroke-miterlimit="10"/>
<path d="M516.125 201.211C516.125 201.211 454.537 182.544 461.64 147.364C461.64 147.364 484.015 141.386 501.898 161.369C519.781 181.353 516.125 201.211 516.125 201.211Z" fill="black"/>
<path d="M497.343 190.446V222.574L512.176 198.765L497.343 190.446Z" fill="black"/>
<path d="M518.966 214.735C520.449 221.132 515.999 228.155 509.043 230.434C502.065 232.712 495.212 229.368 493.729 222.971C492.246 216.575 496.696 209.551 503.653 207.273C510.63 204.994 517.483 208.339 518.966 214.735Z" fill="#DDAF8A"/>
<path d="M512.176 215.321C512.176 215.321 504.593 213.523 500.602 221.717" stroke="black" stroke-width="0.57" stroke-linecap="round" stroke-linejoin="round"/>
<path d="M462.079 160.262C462.079 160.262 450.944 156.499 445.198 163.564C437.51 173.033 433.896 182.189 424.955 184.593C424.955 184.593 422.009 152.402 458.109 149.496L474.237 155.224L462.079 160.262Z" fill="black"/>
<path d="M321.108 448.511H125V570.565H321.108V448.511Z" fill="white"/>
<path d="M321.108 427.148V448.511H125V427.148C125 422.905 128.447 419.456 132.688 419.456H313.441C317.682 419.456 321.129 422.905 321.129 427.148H321.108Z" fill="#C3E5E5"/>
<path d="M291.463 439.69C293.978 439.69 296.017 437.65 296.017 435.133C296.017 432.616 293.978 430.576 291.463 430.576C288.948 430.576 286.909 432.616 286.909 435.133C286.909 437.65 288.948 439.69 291.463 439.69Z" fill="#29A392"/>
<path d="M291.463 436.847C292.904 436.847 294.074 435.677 294.074 434.234V416.613C294.074 415.171 292.904 414 291.463 414C290.021 414 288.851 415.171 288.851 416.613V434.234C288.851 435.677 290.021 436.847 291.463 436.847Z" fill="#29A392"/>
<path d="M263.74 439.69C266.255 439.69 268.294 437.65 268.294 435.133C268.294 432.616 266.255 430.576 263.74 430.576C261.225 430.576 259.186 432.616 259.186 435.133C259.186 437.65 261.225 439.69 263.74 439.69Z" fill="#29A392"/>
<path d="M263.74 436.847C265.181 436.847 266.351 435.677 266.351 434.234V416.613C266.351 415.171 265.181 414 263.74 414C262.298 414 261.129 415.171 261.129 416.613V434.234C261.129 435.677 262.298 436.847 263.74 436.847Z" fill="#29A392"/>
<path d="M236.038 439.69C238.553 439.69 240.592 437.65 240.592 435.133C240.592 432.616 238.553 430.576 236.038 430.576C233.523 430.576 231.484 432.616 231.484 435.133C231.484 437.65 233.523 439.69 236.038 439.69Z" fill="#29A392"/>
<path d="M236.038 436.847C237.479 436.847 238.649 435.677 238.649 434.234V416.613C238.649 415.171 237.479 414 236.038 414C234.596 414 233.427 415.171 233.427 416.613V434.234C233.427 435.677 234.596 436.847 236.038 436.847Z" fill="#29A392"/>
<path d="M203.782 435.133C203.782 437.641 205.808 439.69 208.336 439.69C210.864 439.69 212.89 437.662 212.89 435.133C212.89 432.604 210.864 430.576 208.336 430.576C205.808 430.576 203.782 432.604 203.782 435.133Z" fill="#29A392"/>
<path d="M208.315 436.847C209.757 436.847 210.926 435.677 210.926 434.234V416.613C210.926 415.171 209.757 414 208.315 414C206.874 414 205.704 415.171 205.704 416.613V434.234C205.704 435.677 206.874 436.847 208.315 436.847Z" fill="#29A392"/>
<path d="M180.592 439.69C183.107 439.69 185.146 437.65 185.146 435.133C185.146 432.616 183.107 430.576 180.592 430.576C178.077 430.576 176.038 432.616 176.038 435.133C176.038 437.65 178.077 439.69 180.592 439.69Z" fill="#29A392"/>
<path d="M180.592 436.847C182.034 436.847 183.203 435.677 183.203 434.234V416.613C183.203 415.171 182.034 414 180.592 414C179.151 414 177.981 415.171 177.981 416.613V434.234C177.981 435.677 179.151 436.847 180.592 436.847Z" fill="#29A392"/>
<path d="M148.336 435.133C148.336 437.641 150.362 439.69 152.89 439.69C155.418 439.69 157.444 437.662 157.444 435.133C157.444 432.604 155.418 430.576 152.89 430.576C150.362 430.576 148.336 432.604 148.336 435.133Z" fill="#29A392"/>
<path d="M152.89 436.847C154.332 436.847 155.501 435.677 155.501 434.234V416.613C155.501 415.171 154.332 414 152.89 414C151.448 414 150.279 415.171 150.279 416.613V434.234C150.279 435.677 151.448 436.847 152.89 436.847Z" fill="#29A392"/>
<path d="M240.488 489.983H266.205V464.252H240.488V489.983Z" fill="#C0E6E8"/>
<path d="M206.268 489.983H231.985V464.252H206.268V489.983Z" fill="#C0E6E8"/>
<path d="M172.047 489.983H197.765V464.252H172.047V489.983Z" fill="#C0E6E8"/>
<path d="M137.806 489.983H163.524V464.252H137.806V489.983Z" fill="#C0E6E8"/>
<path d="M274.729 489.983H300.446V464.252H274.729V489.983Z" fill="#EAB65B"/>
<path d="M240.488 522.676H266.205V496.944H240.488V522.676Z" fill="#C0E6E8"/>
<path d="M206.268 522.676H231.985V496.944H206.268V522.676Z" fill="#C0E6E8"/>
<path d="M172.047 522.676H197.765V496.944H172.047V522.676Z" fill="#EAB65B"/>
<path d="M137.806 522.676H163.524V496.944H137.806V522.676Z" fill="#C0E6E8"/>
<path d="M274.729 522.676H300.446V496.944H274.729V522.676Z" fill="#C0E6E8"/>
<path d="M240.488 555.348H266.205V529.616H240.488V555.348Z" fill="#EAB65B"/>
<path d="M206.268 555.348H231.985V529.616H206.268V555.348Z" fill="#C0E6E8"/>
<path d="M172.047 555.348H197.765V529.616H172.047V555.348Z" fill="#C0E6E8"/>
<path d="M137.806 555.348H163.524V529.616H137.806V555.348Z" fill="#C0E6E8"/>
<path d="M274.729 555.348H300.446V529.616H274.729V555.348Z" fill="#C0E6E8"/>
</g>
<defs>
<clipPath id="clip0_692_555">
<rect width="839" height="461" fill="white" transform="translate(0 106)"/>
</clipPath>
</defs>
</svg>
